<svg width="303" height="41" viewBox="0 0 303 41" fill="none" xmlns="http://www.w3.org/2000/svg">
<g clip-path="url(#clip0)">
<path d="M12.2145 9.81576V40.3941H23.4518V9.81576H35.6662V1.00985H0V9.81576H12.2145Z" fill="white"/>
<path d="M67.0575 28.0335C69.403 26.9445 71.3924 25.2227 72.7983 23.065C74.2003 20.8258 74.9081 18.2272 74.834 15.5921C74.929 12.8934 74.2032 10.2289 72.7508 7.94508C71.2985 5.6613 69.187 3.86406 66.691 2.78719C63.7289 1.55244 60.5389 0.946987 57.3266 1.00985H39.0457V9.77537H56.5123C58.3786 9.65198 60.2277 10.1966 61.7238 11.3103C62.3116 11.8551 62.7727 12.5203 63.075 13.2597C63.3774 13.9992 63.5137 14.7951 63.4746 15.5921C63.5165 16.3895 63.3814 17.1862 63.0789 17.9261C62.7764 18.6659 62.3138 19.3309 61.7238 19.8739C60.2167 20.959 58.3686 21.4747 56.5123 21.3281H39.0457V40.3941H50.283V29.932H56.3902L63.5967 40.3941H75.8112L67.0575 28.0335Z" fill="white"/>
<path d="M107.202 1.00985H96.1277L78.5796 40.3941H90.0612L93.1555 32.7596L96.4534 24.6808L101.543 11.9163L106.632 24.5192L109.93 32.598L113.065 40.2325H124.75L107.202 1.00985Z" fill="white"/>
<path d="M133.626 38.5359C137.098 40.3076 140.96 41.196 144.863 41.1212C148.233 41.1829 151.577 40.5358 154.676 39.2226C157.533 38.0106 160.038 36.1081 161.964 33.6886L154.798 27.266C153.074 29.505 150.602 31.0605 147.825 31.6529C145.049 32.2452 142.151 31.8355 139.652 30.4975C137.906 29.602 136.483 28.1905 135.58 26.4581C134.669 24.6309 134.195 22.6196 134.195 20.5808C134.195 18.542 134.669 16.5306 135.58 14.7034C136.5 12.9833 137.918 11.5762 139.652 10.664C141.426 9.71045 143.416 9.2237 145.433 9.25021C147.24 9.2826 149.018 9.71246 150.637 10.5088C152.256 11.3051 153.677 12.448 154.798 13.8551L161.964 7.43248C160.001 5.06027 157.505 3.17852 154.676 1.93888C151.575 0.62788 148.234 -0.032269 144.863 -3.36819e-05C140.953 -0.0482415 137.092 0.867848 133.626 2.66598C130.448 4.34396 127.799 6.86012 125.972 9.93691C124.057 13.1351 123.084 16.8013 123.162 20.5202C123.084 24.239 124.057 27.9052 125.972 31.1034C127.769 34.2451 130.422 36.821 133.626 38.5359Z" fill="white"/>
<path d="M175.97 9.81576V40.3941H187.044V9.81576H199.258V1.00985H163.755V9.81576H175.97Z" fill="white"/>
<path d="M202.801 1.00985V40.3941H214.038V1.00985H202.801Z" fill="white"/>
<path d="M245.144 1.00985H234.07L216.521 40.3941H228.003L231.138 32.7596L234.395 24.6808L239.525 12.0778L244.615 24.6808L247.913 32.7596L251.048 40.3941H262.733L245.144 1.00985Z" fill="white"/>
<path d="M265.176 40.3941H276.21V28.6394L265.257 14.7438L265.176 40.3941ZM291.966 1.00985V12.3202L302.959 25.4887V1.00985H291.966ZM291.966 22.0148L274.418 1.00985H265.176V6.22069L276.21 19.3892L293.717 40.3941H303V35.8296L291.966 21.934V22.0148Z" fill="white"/>
</g>
<defs>
<clipPath id="clip0">
<rect width="303" height="41" fill="white"/>
</clipPath>
</defs>
</svg>
